<svg xmlns="http://www.w3.org/2000/svg"  viewBox="0 0 64 64" width="64px" height="64px"><path d="M 15 9 A 1.0001 1.0001 0 0 0 14 10 L 14 15.003906 L 12.988281 15.005859 C 11.348529 15.01177 10 16.364512 10 18.003906 C 10 19.647251 11.352749 21 12.996094 21 L 15 21 L 17.003906 21 C 17.566562 21 18 21.433438 18 21.996094 L 18 22.003906 C 18 22.566574 17.566562 23 17.003906 23 L 15 23 A 1.0001 1.0001 0 0 0 14 24 L 14 42 A 1.0001 1.0001 0 0 0 15 43 L 17.003906 43 C 17.566562 43 18 43.433438 18 43.996094 L 18 44.003906 C 18 44.566574 17.566562 45 17.003906 45 L 15 45 L 12.996094 45 C 11.352749 45 10 46.352749 10 47.996094 L 10 48.003906 C 10 49.647263 11.352749 51 12.996094 51 L 14 51 L 14 55 A 1.0001 1.0001 0 0 0 15 56 L 49.425781 56 C 51.940139 56 54 53.940139 54 51.425781 L 54 46 A 1.0001 1.0001 0 0 0 53 45 L 47 45 L 47 43.115234 C 47 41.927995 46.831646 40.362189 45.904297 38.890625 C 44.976947 37.419061 43.297273 36.121347 40.599609 35.414062 C 39.705944 35.180095 38.351464 34.818 36.941406 34.292969 C 37.513132 33.910172 38.169123 33.596484 38.664062 33.152344 C 40.764505 31.267485 42.087891 28.731567 42.087891 25.595703 C 42.087891 24.517605 41.89581 22.923172 40.896484 21.509766 C 39.897158 20.096359 38.043087 18.998047 35.253906 18.998047 C 33.341391 18.998047 31.698568 19.680624 30.574219 20.84375 C 29.449869 22.006876 28.859375 23.615124 28.859375 25.355469 C 28.859375 29.762121 30.641485 32.556773 32.802734 34.296875 C 31.881782 34.691374 30.982926 35.097746 29.941406 35.423828 C 27.133662 36.303124 25.548255 37.756118 24.767578 39.265625 C 23.986902 40.775132 24 42.265734 24 43.115234 L 24 46 A 1.0001 1.0001 0 1 0 26 46 L 26 43.115234 C 26 42.265734 26.01365 41.20904 26.542969 40.185547 C 27.072292 39.162054 28.106808 38.095689 30.539062 37.333984 C 32.121136 36.838665 33.614379 36.26621 34.976562 35.587891 C 37.093927 36.613509 39.193964 37.112597 40.091797 37.347656 C 42.421134 37.958372 43.56999 38.936845 44.212891 39.957031 C 44.855791 40.977217 45 42.119474 45 43.115234 L 45 46 A 1.0001 1.0001 0 0 0 46 47 L 52 47 L 52 51.425781 C 52 52.859423 50.859423 54 49.425781 54 L 16 54 L 16 50 A 1.0001 1.0001 0 0 0 15 49 L 12.996094 49 C 12.433438 49 12 48.566562 12 48.003906 L 12 47.996094 C 12 47.433426 12.433438 47 12.996094 47 L 15 47 L 17.003906 47 C 18.647251 47 20 45.647251 20 44.003906 L 20 43.996094 C 20 42.352737 18.647251 41 17.003906 41 L 16 41 L 16 25 L 17.003906 25 C 18.647251 25 20 23.647251 20 22.003906 L 20 21.996094 C 20 20.352737 18.647251 19 17.003906 19 L 15 19 L 12.996094 19 C 12.433438 19 12 18.566562 12 18.003906 C 12 17.4433 12.431893 17.007902 12.994141 17.005859 L 15.003906 17 A 1.0001 1.0001 0 0 0 16 16 L 16 11 L 49.425781 11 C 50.859423 11 52 12.140577 52 13.574219 L 52 40 A 1.0001 1.0001 0 1 0 54 40 L 54 13.574219 C 54 11.059861 51.940139 9 49.425781 9 L 15 9 z M 35.253906 20.998047 C 37.558726 20.998047 38.619498 21.75297 39.263672 22.664062 C 39.907846 23.575156 40.087891 24.777802 40.087891 25.595703 C 40.087891 28.193839 39.095683 30.075969 37.328125 31.662109 C 36.630515 32.288118 35.716933 32.817024 34.787109 33.335938 C 34.767249 33.323257 34.746373 33.321444 34.726562 33.308594 C 32.631456 31.948664 30.859375 29.763787 30.859375 25.355469 C 30.859375 24.060813 31.282272 22.990999 32.013672 22.234375 C 32.745072 21.477751 33.801421 20.998047 35.253906 20.998047 z"/></svg>