<svg xmlns="http://www.w3.org/2000/svg" xmlns:xlink="http://www.w3.org/1999/xlink" viewBox="0,0,256,256" width="80px" height="80px"><g fill="#ffffff" fill-rule="nonzero" stroke="none" stroke-width="1" stroke-linecap="butt" stroke-linejoin="miter" stroke-miterlimit="10" stroke-dasharray="" stroke-dashoffset="0" font-family="none" font-weight="none" font-size="none" text-anchor="none" style="mix-blend-mode: normal"><g transform="scale(3.2,3.2)"><path d="M38,8c-15.53516,0 -28,12.50781 -28,27.09375c0,8.22656 3.41797,13.48828 6.69141,17.97266c3.27344,4.48828 6.30859,8.17188 6.30859,13.66797v6.26563h2v-6.26562c0,-6.23437 -3.46484,-10.42187 -6.69141,-14.84375c-3.22656,-4.42578 -6.30859,-9.11328 -6.30859,-16.79687c0,-13.44531 11.53516,-25.09375 26,-25.09375c16.53125,0 25,11.50391 25,22.89063v0.27344l6.87891,11.68359c0.26172,0.44141 0.10547,0.97266 -0.34766,1.20313l-6.53125,3.33984v8.60938c0,3.87891 -3.12109,7 -7,7h-7c-0.55078,0 -1,0.44922 -1,1c0,0.55078 0.44922,1 1,1v6h2v-6h5c4.95703,0 9,-4.04297 9,-9v-7.39062l5.4375,-2.77734c1.45703,-0.74219 1.99219,-2.58984 1.16797,-4l-6.63672,-11.26562c-0.16406,-12.28906 -9.65234,-24.56641 -26.96875,-24.56641zM41.01172,23.98438c-0.4375,0 -0.82812,0.28125 -0.96094,0.69922l-6,18c-0.17578,0.52344 0.10938,1.08984 0.63281,1.26563c0.52344,0.17578 1.08984,-0.10937 1.26563,-0.63281l6,-18c0.10547,-0.30469 0.05859,-0.64062 -0.125,-0.90625c-0.1875,-0.26562 -0.48828,-0.42187 -0.8125,-0.42578zM25.01953,27.98828c-0.36328,-0.00391 -0.70312,0.19141 -0.88281,0.50781l-3.79297,6.50391l3.79297,6.50391c0.17188,0.32031 0.50781,0.52344 0.875,0.52344c0.36328,0.00391 0.69922,-0.19531 0.87891,-0.51172c0.17578,-0.32031 0.16797,-0.71094 -0.02734,-1.01953l-3.20703,-5.49609l3.20703,-5.49609c0.18359,-0.30859 0.19141,-0.6875 0.01563,-1.00391c-0.17187,-0.3125 -0.5,-0.50781 -0.85937,-0.51172zM49.44922,27.98828c-0.35156,0.01563 -0.67187,0.21484 -0.83594,0.52734c-0.16797,0.30859 -0.16016,0.6875 0.02344,0.98828l3.20703,5.49609l-3.20703,5.49609c-0.19531,0.30859 -0.20312,0.69922 -0.02734,1.01953c0.17969,0.31641 0.51563,0.51563 0.87891,0.51172c0.36719,0 0.70313,-0.20312 0.875,-0.52344l3.79297,-6.50391l-3.79297,-6.50391c-0.18359,-0.32812 -0.53906,-0.52344 -0.91406,-0.50781zM28,34c-0.55078,0 -1,0.44922 -1,1c0,0.55078 0.44922,1 1,1c0.55078,0 1,-0.44922 1,-1c0,-0.55078 -0.44922,-1 -1,-1zM32,34c-0.55078,0 -1,0.44922 -1,1c0,0.55078 0.44922,1 1,1c0.55078,0 1,-0.44922 1,-1c0,-0.55078 -0.44922,-1 -1,-1zM43,34c-0.55078,0 -1,0.44922 -1,1c0,0.55078 0.44922,1 1,1c0.55078,0 1,-0.44922 1,-1c0,-0.55078 -0.44922,-1 -1,-1zM47,34c-0.55078,0 -1,0.44922 -1,1c0,0.55078 0.44922,1 1,1c0.55078,0 1,-0.44922 1,-1c0,-0.55078 -0.44922,-1 -1,-1zM38,61c-0.55078,0 -1,0.44922 -1,1c0,0.55078 0.44922,1 1,1c0.55078,0 1,-0.44922 1,-1c0,-0.55078 -0.44922,-1 -1,-1zM41,64c-0.55078,0 -1,0.44922 -1,1c0,0.55078 0.44922,1 1,1c0.55078,0 1,-0.44922 1,-1c0,-0.55078 -0.44922,-1 -1,-1zM45,65c-0.55078,0 -1,0.44922 -1,1c0,0.55078 0.44922,1 1,1c0.55078,0 1,-0.44922 1,-1c0,-0.55078 -0.44922,-1 -1,-1z"></path></g></g></svg>