<svg xmlns="http://www.w3.org/2000/svg" version="1.1" width="60" height="60" viewbox="0 0 60 60"><rect x="0" y="0" width="60" height="60" fill="rgba(0,0,0,0)"></rect><g transform="translate(5, 43)"><path d="M12 7.73Q12 6.67 12.67 6 13.34 5.33 14.35 5.33 15.36 5.33 16.03 6.02 16.7 6.72 16.7 7.68L16.7 7.68Q16.7 9.12 15.55 9.7L15.55 9.7Q15.5 9.74 15.31 9.82 15.12 9.89 14.93 9.94L14.93 9.94 14.78 10.03Q14.78 10.08 15.05 10.32 15.31 10.56 15.5 10.66L15.5 10.66Q16.27 11.23 17.38 11.23L17.38 11.23Q18.29 11.23 18.91 10.8L18.91 10.8Q20.06 10.13 20.64 8.3L20.64 8.3Q21.41 6.14 22.13-3.26L22.13-3.26 22.27-5.23 22.03-5.33Q21.84-5.47 21.53-5.59 21.22-5.71 21.17-5.76L21.17-5.76Q17.95-7.39 16.85-10.9L16.85-10.9Q16.46-12.05 16.46-13.68L16.46-13.68Q16.46-15.26 16.85-16.42L16.85-16.42Q18.1-20.4 22.08-21.98L22.08-21.98Q22.32-22.08 22.7-22.18L22.7-22.18Q23.04-22.27 23.45-22.37 23.86-22.46 24.05-22.51L24.05-22.51 24.1-22.99Q24.14-23.23 24.38-25.06L24.38-25.06Q24.62-26.83 24.82-28.32 25.01-29.81 25.06-30.05L25.06-30.05Q26.26-36.96 29.71-39.22L29.71-39.22Q30.91-39.98 32.35-40.27L32.35-40.27Q32.45-40.27 32.83-40.32L32.83-40.32Q33.17-40.32 33.41-40.32L33.41-40.32Q35.66-40.18 37.15-38.74 38.64-37.3 38.64-35.04L38.64-35.04Q38.64-33.98 37.97-33.31 37.3-32.64 36.29-32.64 35.28-32.64 34.61-33.34 33.94-34.03 33.94-34.99L33.94-34.99Q33.94-36.43 35.09-37.01L35.09-37.01Q35.14-37.06 35.33-37.13 35.52-37.2 35.66-37.3L35.66-37.3 35.86-37.34Q35.86-37.58 35.14-37.97L35.14-37.97Q34.32-38.54 33.26-38.54L33.26-38.54Q31.15-38.54 30.19-36.05L30.19-36.05Q29.28-33.94 28.8-26.98L28.8-26.98 28.42-22.08Q28.42-21.98 29.52-21.55L29.52-21.55Q32.74-19.92 33.84-16.42L33.84-16.42Q34.22-15.26 34.22-13.68L34.22-13.68Q34.22-12.05 33.84-10.9L33.84-10.9Q32.59-6.91 28.61-5.33L28.61-5.33Q28.37-5.23 28.03-5.14L28.03-5.14Q27.65-5.04 27.24-4.94 26.83-4.85 26.64-4.8L26.64-4.8 26.59-4.32Q26.5-3.65 26.26-1.54L26.26-1.54Q25.97 0.53 25.82 1.34L25.82 1.34Q25.68 2.21 25.39 3.72 25.1 5.23 24.74 6.26 24.38 7.3 23.9 8.26L23.9 8.26Q22.51 11.23 20.16 12.38L20.16 12.38Q18.91 13.01 17.47 13.01L17.47 13.01Q14.02 13.01 12.58 10.03L12.58 10.03Q12 9.02 12 7.73L12 7.73ZM23.66-19.63L23.76-20.45Q23.76-20.54 23.38-20.4L23.38-20.4Q21.26-19.82 19.8-17.98 18.34-16.13 18.34-13.63L18.34-13.63Q18.34-11.42 19.49-9.79 20.64-8.16 22.42-7.25L22.42-7.25 22.42-7.54Q22.46-7.73 22.56-9.07L22.56-9.07Q22.94-13.82 23.66-19.63L23.66-19.63ZM32.35-13.63L32.35-13.63Q32.35-15.7 31.27-17.4 30.19-19.1 28.66-19.87L28.66-19.87 28.27-20.06 28.27-19.78Q28.22-19.58 28.13-18.29L28.13-18.29Q27.84-14.88 27.07-8.06L27.07-8.06Q26.93-7.06 26.93-6.82L26.93-6.82Q27.22-6.82 27.98-7.15L27.98-7.15Q29.81-7.82 31.08-9.6 32.35-11.38 32.35-13.63Z" fill="#dfc9c9"></path></g></svg>